<?xml version="1.0" encoding="UTF-8" standalone="no"?>
<!DOCTYPE svg PUBLIC "-//W3C//DTD SVG 1.1//EN"
 "http://www.w3.org/Graphics/SVG/1.1/DTD/svg11.dtd">
<!-- Generated by graphviz version 2.40.1 (20161225.0304)
 -->
<!-- Title: G Pages: 1 -->
<svg width="1406pt" height="188pt"
 viewBox="0.00 0.00 1406.29 188.00" xmlns="http://www.w3.org/2000/svg" xmlns:xlink="http://www.w3.org/1999/xlink">
<g id="graph0" class="graph" transform="scale(1 1) rotate(0) translate(4 184)">
<title>G</title>
<polygon fill="#ffffff" stroke="transparent" points="-4,4 -4,-184 1402.2858,-184 1402.2858,4 -4,4"/>
<!-- Развитие базы/Экономика/Ресурсы -->
<g id="node1" class="node">
<title>Развитие базы/Экономика/Ресурсы</title>
<polygon fill="none" stroke="#000000" points="745.9001,-108 261.5999,-108 261.5999,-72 745.9001,-72 745.9001,-108"/>
<text text-anchor="middle" x="503.75" y="-85.8" font-family="Times,serif" font-size="14.00" fill="#000000">Развитие базы/Экономика/Ресурсы</text>
</g>
<!-- TBS &#45; Классика -->
<g id="node6" class="node">
<title>TBS &#45; Классика</title>
<polygon fill="none" stroke="#000000" points="1011.4578,-36 832.0422,-36 832.0422,0 1011.4578,0 1011.4578,-36"/>
<text text-anchor="middle" x="921.75" y="-13.8" font-family="Times,serif" font-size="14.00" fill="#000000">TBS &#45; Классика</text>
</g>
<!-- Развитие базы/Экономика/Ресурсы&#45;&gt;TBS &#45; Классика -->
<g id="edge5" class="edge">
<title>Развитие базы/Экономика/Ресурсы&#45;&gt;TBS &#45; Классика</title>
<path fill="none" stroke="#1b9e77" d="M608.42,-71.9707C673.7255,-60.7219 757.3091,-46.3247 821.7213,-35.2298"/>
<polygon fill="#1b9e77" stroke="#1b9e77" points="822.628,-38.6253 831.8888,-33.4785 821.4397,-31.7269 822.628,-38.6253"/>
</g>
<!-- RTS &#45; Классика -->
<g id="node7" class="node">
<title>RTS &#45; Классика</title>
<polygon fill="none" stroke="#000000" points="593.4578,-36 414.0422,-36 414.0422,0 593.4578,0 593.4578,-36"/>
<text text-anchor="middle" x="503.75" y="-13.8" font-family="Times,serif" font-size="14.00" fill="#000000">RTS &#45; Классика</text>
</g>
<!-- Развитие базы/Экономика/Ресурсы&#45;&gt;RTS &#45; Классика -->
<g id="edge7" class="edge">
<title>Развитие базы/Экономика/Ресурсы&#45;&gt;RTS &#45; Классика</title>
<path fill="none" stroke="#d95f02" d="M503.75,-71.8314C503.75,-64.131 503.75,-54.9743 503.75,-46.4166"/>
<polygon fill="#d95f02" stroke="#d95f02" points="507.2501,-46.4132 503.75,-36.4133 500.2501,-46.4133 507.2501,-46.4132"/>
</g>
<!-- Тактические сражения -->
<g id="node2" class="node">
<title>Тактические сражения</title>
<polygon fill="none" stroke="#000000" points="1079.0017,-108 764.4983,-108 764.4983,-72 1079.0017,-72 1079.0017,-108"/>
<text text-anchor="middle" x="921.75" y="-85.8" font-family="Times,serif" font-size="14.00" fill="#000000">Тактические сражения</text>
</g>
<!-- Тактические сражения&#45;&gt;TBS &#45; Классика -->
<g id="edge4" class="edge">
<title>Тактические сражения&#45;&gt;TBS &#45; Классика</title>
<path fill="none" stroke="#1b9e77" d="M921.75,-71.8314C921.75,-64.131 921.75,-54.9743 921.75,-46.4166"/>
<polygon fill="#1b9e77" stroke="#1b9e77" points="925.2501,-46.4132 921.75,-36.4133 918.2501,-46.4133 925.2501,-46.4132"/>
</g>
<!-- Тактические сражения&#45;&gt;RTS &#45; Классика -->
<g id="edge8" class="edge">
<title>Тактические сражения&#45;&gt;RTS &#45; Классика</title>
<path fill="none" stroke="#d95f02" d="M817.08,-71.9707C751.7745,-60.7219 668.1909,-46.3247 603.7787,-35.2298"/>
<polygon fill="#d95f02" stroke="#d95f02" points="604.0603,-31.7269 593.6112,-33.4785 602.872,-38.6253 604.0603,-31.7269"/>
</g>
<!-- Тактические стратегии -->
<g id="node8" class="node">
<title>Тактические стратегии</title>
<polygon fill="none" stroke="#000000" points="1398.3216,-36 1085.1784,-36 1085.1784,0 1398.3216,0 1398.3216,-36"/>
<text text-anchor="middle" x="1241.75" y="-13.8" font-family="Times,serif" font-size="14.00" fill="#000000">Тактические стратегии</text>
</g>
<!-- Тактические сражения&#45;&gt;Тактические стратегии -->
<g id="edge10" class="edge">
<title>Тактические сражения&#45;&gt;Тактические стратегии</title>
<path fill="none" stroke="#7570b3" d="M1002.0865,-71.9243C1047.6305,-61.6769 1104.7365,-48.828 1151.78,-38.2432"/>
<polygon fill="#7570b3" stroke="#7570b3" points="1152.6703,-41.6305 1161.6581,-36.0207 1151.1337,-34.8012 1152.6703,-41.6305"/>
</g>
<!-- По времени -->
<g id="node3" class="node">
<title>По времени</title>
<polygon fill="none" stroke="#000000" points="1279.9107,-180 1087.5893,-180 1087.5893,-144 1279.9107,-144 1279.9107,-180"/>
<text text-anchor="middle" x="1183.75" y="-157.8" font-family="Times,serif" font-size="14.00" fill="#000000">По времени</text>
</g>
<!-- Пошаговость -->
<g id="node4" class="node">
<title>Пошаговость</title>
<polygon fill="none" stroke="#000000" points="1270.7507,-108 1096.7493,-108 1096.7493,-72 1270.7507,-72 1270.7507,-108"/>
<text text-anchor="middle" x="1183.75" y="-85.8" font-family="Times,serif" font-size="14.00" fill="#000000">Пошаговость</text>
</g>
<!-- По времени&#45;&gt;Пошаговость -->
<g id="edge1" class="edge">
<title>По времени&#45;&gt;Пошаговость</title>
<path fill="none" stroke="#000000" d="M1183.75,-143.8314C1183.75,-136.131 1183.75,-126.9743 1183.75,-118.4166"/>
<polygon fill="#000000" stroke="#000000" points="1187.2501,-118.4132 1183.75,-108.4133 1180.2501,-118.4133 1187.2501,-118.4132"/>
</g>
<!-- Реальное время -->
<g id="node5" class="node">
<title>Реальное время</title>
<polygon fill="none" stroke="#000000" points="243.7505,-108 -.2505,-108 -.2505,-72 243.7505,-72 243.7505,-108"/>
<text text-anchor="middle" x="121.75" y="-85.8" font-family="Times,serif" font-size="14.00" fill="#000000">Реальное время</text>
</g>
<!-- По времени&#45;&gt;Реальное время -->
<g id="edge2" class="edge">
<title>По времени&#45;&gt;Реальное время</title>
<path fill="none" stroke="#000000" d="M1087.394,-158.909C919.9944,-152.9878 564.4418,-137.9775 253.8441,-108.0621"/>
<polygon fill="#000000" stroke="#000000" points="254.0333,-104.5641 243.7421,-107.0822 253.3574,-111.5314 254.0333,-104.5641"/>
</g>
<!-- По времени&#45;&gt;Тактические стратегии -->
<g id="edge9" class="edge">
<title>По времени&#45;&gt;Тактические стратегии</title>
<path fill="none" stroke="#7570b3" d="M1238.0095,-143.9128C1254.3351,-135.642 1270.3857,-124.0115 1279.75,-108 1291.7047,-87.5592 1279.3171,-62.6449 1265.5829,-44.2165"/>
<polygon fill="#7570b3" stroke="#7570b3" points="1268.2168,-41.905 1259.2604,-36.2451 1262.7324,-46.2549 1268.2168,-41.905"/>
</g>
<!-- Пошаговость&#45;&gt;TBS &#45; Классика -->
<g id="edge3" class="edge">
<title>Пошаговость&#45;&gt;TBS &#45; Классика</title>
<path fill="none" stroke="#1b9e77" d="M1117.9745,-71.9243C1081.379,-61.8675 1035.666,-49.3052 997.5709,-38.8363"/>
<polygon fill="#1b9e77" stroke="#1b9e77" points="998.1225,-35.3582 987.5525,-36.0831 996.2676,-42.108 998.1225,-35.3582"/>
</g>
<!-- Реальное время&#45;&gt;RTS &#45; Классика -->
<g id="edge6" class="edge">
<title>Реальное время&#45;&gt;RTS &#45; Классика</title>
<path fill="none" stroke="#d95f02" d="M217.6517,-71.9243C274.4782,-61.2135 346.3831,-47.6608 403.8899,-36.8218"/>
<polygon fill="#d95f02" stroke="#d95f02" points="404.5415,-40.2607 413.7202,-34.969 403.2449,-33.3818 404.5415,-40.2607"/>
</g>
</g>
</svg>
